<?xml version="1.0" standalone="no"?><!DOCTYPE svg PUBLIC "-//W3C//DTD SVG 1.1//EN" "http://www.w3.org/Graphics/SVG/1.1/DTD/svg11.dtd"><svg t="1744007116394" class="icon" viewBox="0 0 1024 1024" version="1.1" xmlns="http://www.w3.org/2000/svg" p-id="2668" xmlns:xlink="http://www.w3.org/1999/xlink" width="200" height="200"><path d="M948.138667 218.346667v-104.533334a37.930667 37.930667 0 0 0-37.930667-37.930666H113.770667a37.930667 37.930667 0 0 0-37.930667 37.930666v104.533334zM75.861333 294.186667v616.021333a37.930667 37.930667 0 0 0 37.930667 37.930667h796.437333a37.930667 37.930667 0 0 0 37.930667-37.930667v-102.634667a37.930667 37.930667 0 1 1 75.861333 0v102.634667A113.770667 113.770667 0 0 1 910.229333 1024H113.770667A113.770667 113.770667 0 0 1 0 910.229333V113.770667A113.770667 113.770667 0 0 1 113.770667 0h796.437333A113.770667 113.770667 0 0 1 1024 113.770667v142.485333a37.930667 37.930667 0 0 1-37.930667 37.930667z" p-id="2669"></path><path d="M630.336 404.266667a37.930667 37.930667 0 0 1 71.296 25.898666l-129.706667 341.333334a37.930667 37.930667 0 1 1-71.296-25.898667z m175.829333 38.4a37.952 37.952 0 1 1 56.426667-50.752l149.845333 166.677333a37.930667 37.930667 0 0 1 0 50.709333l-149.845333 166.677334a37.930667 37.930667 0 0 1-56.426667-50.709334l127.082667-141.312-127.061333-141.312z m-400.533333 0a37.930667 37.930667 0 1 0-56.405333-50.752l-149.888 166.677333a37.930667 37.930667 0 0 0 0 50.709333l149.888 166.677334a37.930667 37.930667 0 1 0 56.405333-50.709334l-127.061333-141.312z" p-id="2670"></path></svg>